<?xml version="1.0" encoding="UTF-8"?><svg id="Layer_1" xmlns="http://www.w3.org/2000/svg" viewBox="0 0 72 72"><defs><style>.cls-1{fill:#1aae4f;}</style></defs><path class="cls-1" d="M12.99,21.03v31.44l-2.1-2.09v-31.48s48.13,0,48.13,0v-.9H9.96v32.97h.02-.01s3,3.01,3,3.01l.02-.02v.04h49.06V21.03H12.99ZM49.19,28.81c.02-.28,0-.31-.01-.58-.02-.32-.02-.82.02-1.15.04-.32.12-.47.23-.63.23-.37.65-.66.68-.71.09-.14-.26-.29-.26-.42,0-.16,2.16-.08,2.38-.07.47.04.56.11.69.26.15.18.28.58.51.61.34.05.55.22.7.52.24.48.26,1.16.17,1.68-.04.24-.06.22-.05.48.17,0,.3.13.3.3,0,.43-.02.82-.45,1.06-.09.29-.21.56-.36.81v1.09l-1.81,1.29h0v.22s.07.04.11.07l.36.36c.14.14.14.38,0,.52l-.24.24c.12.88.25,1.76.37,2.64h-1.51c.12-.88.25-1.76.37-2.64l-.24-.24c-.14-.14-.14-.38,0-.52l.36-.36s.07-.06.11-.07v-.22l-1.81-1.29v-.95c-.2-.29-.36-.63-.47-1-.36-.28-.38-.59-.38-1.01,0-.15.11-.27.24-.29ZM28.81,50.59h-11.43v-1.12h11.43v1.12ZM28.81,47.66h-11.43v-1.12h11.43v1.12ZM24.73,40.68v1.12h-7.35v-1.12h7.35ZM17.38,38.87v-1.12h4.9v1.12h-4.9ZM28.8,43.61v1.12h-11.42v-1.12h11.42ZM37.3,50.59h-5.63v-1.12h5.63v1.12ZM35.67,46.54v1.12h-4v-1.12h4ZM31.67,44.73v-1.12h3.18v1.12h-3.18ZM37.93,48.24l1.45-1.06-6.9-9.42-5.2,3.53-5.24-7.59-3.34,2.27-1.01-1.49,4.82-3.28,5.24,7.59,5.16-3.5,7.92,10.82,1.45-1.06.58,5.35-4.92-2.17ZM31.67,33.01v-1.12h11.42v1.12h-11.42ZM43.1,41.8h-3.18v-1.12h3.18v1.12ZM37.63,38.87v-1.12h5.47v1.12h-5.47ZM43.1,35.94h-7.43v-1.12h7.43v1.12ZM43.34,29.44h-26.01v-4.5h26.01v4.5ZM45.89,35.43c.57-1,2.44-2.02,3.45-2.48h0s0,0,0,0c0,0,0,0,0,0l.87,4.47h-4.31v-1.98ZM45.96,43.61h11.42v1.12h-11.42v-1.12ZM57.39,50.59h-11.43v-1.12h11.43v1.12ZM57.39,47.66h-11.43v-1.12h11.43v1.12ZM57.39,41.8h-11.43v-1.12h11.43v1.12ZM57.64,37.41s-4.31,0-4.31,0l.87-4.47c1.01.47,2.88,1.48,3.45,2.48v1.98ZM56.96,31.29l-1.64-2.84h3.28l-1.64,2.84ZM56.96,27.82l-1.64-2.84h3.28l-1.64,2.84Z"/><polygon class="cls-1" points="11.56 50.1 12.31 50.85 12.31 20.33 60.65 20.33 60.65 19.63 11.56 19.6 11.56 50.1"/></svg>