<?xml version="1.0" encoding="UTF-8"?><svg id="Layer_1" xmlns="http://www.w3.org/2000/svg" viewBox="0 0 72 72"><defs><style>.cls-1{fill:#f3bd1f;}</style></defs><path class="cls-1" d="M56.54,34.97c-.1-2.08-.54-4.08-1.22-5.95l-.79.85c.65,1.93,1.01,3.98,1.01,6.13,0,10.67-8.68,19.34-19.34,19.34s-19.35-8.68-19.35-19.34c0-5.21,2.08-9.94,5.44-13.42l.91.91c-3.14,3.19-5.09,7.62-5.09,12.5,0,.21.02.41.03.61h1.56c.1,4.03,1.68,7.82,4.51,10.74.1.1.21.19.31.29l.56-.54c2.85,2.86,6.78,4.63,11.13,4.63,8.67,0,15.72-7.05,15.72-15.72,0-2.47-.59-4.8-1.61-6.88l-.8.77c.86,1.86,1.36,3.93,1.36,6.12,0,8.09-6.58,14.67-14.67,14.67s-14.67-6.58-14.67-14.67c0-3.92,1.56-7.48,4.07-10.12l1.03,1.03c-2.3,2.3-3.74,5.52-3.74,9.07,0,.21.02.41.03.61h1.52c.1,2.8,1.21,5.43,3.18,7.46.1.1.21.19.31.29l.52-.49c2,1.97,4.73,3.19,7.75,3.19,6.09,0,11.04-4.95,11.04-11.04s-4.79-10.86-10.73-11.03v-3.62c2.93.06,5.64.99,7.91,2.53l.77-.75c-2.47-1.73-5.46-2.77-8.68-2.83v-3.62c2.91.05,5.65.76,8.12,1.96l.76-.8c-2.63-1.34-5.59-2.12-8.72-2.19v-2.12h-.67c-.25-.02-.49-.05-.75-.05-12.09,0-21.93,10.1-21.93,22.52,0,.21.02.41.03.61h1.59c.1,5.1,2.03,9.9,5.51,13.65l-.96.96,1.49,1.49,1.58-1.58c3.37,3.04,7.74,4.96,12.55,5.22v2.21h2.1v-2.21c4.83-.24,9.21-2.16,12.58-5.19l1.55,1.55,1.49-1.49-1.54-1.54c3.06-3.37,4.99-7.75,5.25-12.59h2.15v-2.1h-2.14ZM32.34,32.62l2.78,2.78c-.1.18-.17.37-.17.59,0,.69.56,1.24,1.24,1.24s1.24-.56,1.24-1.24c0-.57-.4-1.04-.93-1.18v-4.11c2.78.17,5,2.46,5,5.29s-2.39,5.32-5.32,5.32c-2.73,0-4.95-2.07-5.26-4.72h0c-.03-.2-.06-.4-.06-.61,0-1.34.57-2.53,1.46-3.36ZM30.06,30.34c-1.47,1.42-2.39,3.42-2.39,5.64,0,.21.01.41.03.61h1.49c.1,1.57.74,3.04,1.85,4.18h0c.1.1.2.19.31.29l.47-.45c1.14,1.08,2.68,1.75,4.37,1.75,3.51,0,6.37-2.86,6.37-6.37s-2.69-6.19-6.05-6.35v-3.62c5.36.17,9.68,4.57,9.68,9.98s-4.48,9.99-9.99,9.99-9.99-4.48-9.99-9.99c0-2.63,1.03-5.02,2.7-6.81l1.16,1.16Z"/><polygon class="cls-1" points="54.42 21.19 52.72 19.49 50.33 21.88 47.94 19.49 46.23 21.19 48.62 23.58 46.23 25.97 47.94 27.68 50.33 25.29 52.72 27.68 54.42 25.97 52.03 23.58 54.42 21.19"/></svg>